<?xml version="1.0" standalone="no"?>
<!DOCTYPE svg PUBLIC "-//W3C//DTD SVG 20010904//EN"
 "http://www.w3.org/TR/2001/REC-SVG-20010904/DTD/svg10.dtd">
<svg version="1.0" xmlns="http://www.w3.org/2000/svg"
 width="256.000000pt" height="256.000000pt" viewBox="0 0 256.000000 256.000000"
 preserveAspectRatio="xMidYMid meet">

<g transform="translate(0.000000,256.000000) scale(0.100000,-0.100000)"
fill="#000000" stroke="none">
<path d="M1125 2375 c-576 -93 -936 -638 -784 -1185 39 -141 118 -277 231
-396 58 -60 58 -61 38 -79 -11 -10 -20 -23 -20 -29 0 -24 -69 -154 -114 -214
-55 -74 -64 -107 -42 -150 14 -26 29 -35 97 -57 97 -30 254 -59 271 -49 6 4
-40 17 -103 30 -153 31 -219 55 -243 87 -24 32 -19 46 49 138 25 34 58 89 73
121 20 43 31 56 42 51 126 -55 297 -82 575 -90 301 -9 609 25 718 77 22 11 42
19 43 17 1 -1 17 -31 36 -67 19 -36 55 -94 81 -129 26 -35 47 -73 47 -85 0
-53 -65 -79 -315 -126 l-100 -18 65 -1 c91 -1 316 54 347 85 28 28 30 78 5
115 -9 14 -40 60 -69 103 -28 42 -59 98 -68 125 -9 27 -25 57 -35 66 -19 18
-18 19 48 89 324 342 348 846 56 1215 -114 144 -273 255 -455 315 -163 55
-311 67 -474 41z m335 -26 c240 -44 479 -196 612 -392 52 -76 114 -207 133
-282 65 -251 18 -523 -127 -738 -87 -128 -233 -254 -360 -312 -71 -31 -219
-47 -443 -47 -234 0 -372 15 -439 49 -226 114 -404 330 -477 578 -30 102 -37
295 -14 406 45 226 171 424 359 565 205 154 493 220 756 173z m-765 -1712 c6
-5 -3 -3 -20 3 -39 15 -55 29 -55 48 0 11 9 8 33 -14 17 -16 37 -33 42 -37z"/>
<path d="M924 2236 c-182 -67 -333 -195 -434 -366 -46 -76 -96 -222 -105 -300
l-6 -55 24 62 c38 98 86 170 167 251 l75 75 -40 -7 -40 -8 25 27 c35 38 140
120 191 150 l44 26 -45 -6 -45 -6 95 61 c52 34 115 75 140 91 54 34 37 36 -46
5z"/>
<path d="M1657 2224 c-11 -12 3 -24 29 -24 15 0 24 6 24 15 0 15 -40 21 -53 9z"/>
<path d="M1776 2151 c-3 -5 0 -11 8 -14 15 -6 26 1 26 15 0 11 -27 10 -34 -1z"/>
<path d="M1140 2064 c-179 -38 -358 -179 -438 -344 -54 -111 -72 -184 -72
-295 0 -187 56 -321 190 -456 62 -64 104 -96 155 -121 129 -64 166 -73 315
-73 121 0 143 3 208 27 145 52 259 140 339 261 89 133 130 314 104 462 -66
379 -425 620 -801 539z m320 -143 c36 -11 95 -41 132 -66 356 -240 280 -786
-129 -926 -89 -31 -240 -33 -323 -5 -236 79 -382 290 -367 531 11 185 114 344
278 430 128 67 269 79 409 36z m435 -531 c-5 -8 -11 -8 -17 -2 -6 6 -7 16 -3
22 5 8 11 8 17 2 6 -6 7 -16 3 -22z m0 -100 c-5 -8 -11 -8 -17 -2 -6 6 -7 16
-3 22 5 8 11 8 17 2 6 -6 7 -16 3 -22z"/>
<path d="M1546 1813 c-12 -12 -6 -33 9 -33 8 0 15 6 15 14 0 17 -14 28 -24 19z"/>
<path d="M1178 1728 c-3 -43 -3 -43 -48 -48 l-45 -5 -3 -268 c-2 -209 0 -268
10 -272 7 -2 35 -6 62 -8 48 -3 48 -4 51 -40 2 -43 3 -44 30 -49 17 -2 20 3
23 40 3 33 7 42 22 42 15 0 19 -9 22 -42 3 -38 6 -43 28 -43 22 0 25 5 28 42
3 37 6 42 33 48 45 10 97 61 109 106 15 54 3 105 -33 146 l-30 34 22 23 c77
82 24 222 -91 241 -37 7 -38 7 -38 51 0 42 -1 44 -30 44 -29 0 -30 -2 -30 -46
0 -38 -3 -45 -17 -42 -13 2 -19 15 -21 46 -3 37 -6 42 -27 42 -21 0 -24 -5
-27 -42z m219 -87 c49 -23 73 -62 73 -122 0 -34 -6 -47 -35 -76 l-34 -34 39
-38 c37 -35 40 -42 40 -93 0 -110 -52 -137 -242 -130 l-128 4 0 254 0 254 123
0 c98 0 130 -4 164 -19z"/>
<path d="M1207 1573 c-2 -5 -4 -33 -3 -63 l1 -55 44 -3 c25 -2 55 -1 67 2 45
12 55 73 18 110 -16 17 -119 23 -127 9z m33 -55 c0 -7 10 -22 21 -34 l21 -23
-28 3 c-26 3 -29 8 -32 41 -2 24 0 35 7 30 6 -3 11 -11 11 -17z"/>
<path d="M1205 1318 c-13 -84 -8 -93 56 -96 51 -3 59 0 78 24 44 56 14 105
-72 112 l-55 4 -7 -44z m62 -77 c15 -9 13 -10 -14 -11 -32 0 -33 1 -32 43 l1
42 14 -32 c7 -17 22 -36 31 -42z"/>
<path d="M1606 1753 c-11 -11 -6 -23 9 -23 8 0 15 4 15 9 0 13 -16 22 -24 14z"/>
<path d="M892 1623 c-73 -118 -83 -261 -24 -383 17 -36 44 -78 60 -93 l29 -28
-13 53 c-8 29 -14 79 -14 112 l0 59 -21 -19 -22 -19 6 76 c4 42 10 85 13 95 7
19 7 19 -14 0 l-22 -19 6 34 c4 19 17 66 29 104 13 39 22 71 20 73 -1 1 -16
-19 -33 -45z"/>
<path d="M1910 1934 c0 -7 170 -223 181 -230 29 -18 -2 35 -76 129 -74 93
-105 123 -105 101z"/>
<path d="M1900 1812 c0 -15 99 -117 100 -103 0 7 -18 35 -41 62 -38 46 -59 60
-59 41z"/>
<path d="M2096 1162 c-73 -153 -261 -353 -442 -469 -36 -23 36 6 107 43 156
82 281 230 340 403 22 64 20 76 -5 23z"/>
<path d="M507 1043 c-3 -5 34 -49 82 -97 49 -49 91 -84 94 -79 3 5 -34 49 -82
97 -49 49 -91 84 -94 79z"/>
<path d="M590 1038 c0 -15 73 -78 89 -78 20 0 11 15 -27 46 -51 42 -62 48 -62
32z"/>
<path d="M2187 2225 c-11 -23 -29 -41 -47 -48 -17 -6 -30 -14 -30 -17 1 -3 15
-14 33 -25 17 -11 38 -33 45 -48 17 -34 25 -34 39 2 6 18 26 37 49 49 l39 20
-26 10 c-25 10 -50 36 -74 77 -9 15 -13 12 -28 -20z"/>
<path d="M325 738 c-6 -12 -25 -32 -42 -44 l-33 -22 30 -12 c16 -7 35 -25 42
-41 16 -35 22 -36 36 -4 6 14 26 34 43 44 l31 19 -31 17 c-18 9 -37 27 -43 40
-14 31 -20 31 -33 3z"/>
<path d="M593 550 c-6 -14 -32 -56 -57 -93 -50 -73 -55 -95 -28 -120 26 -23
65 -36 192 -63 160 -33 172 -29 51 16 -72 26 -114 48 -135 71 -28 29 -29 31
-8 26 26 -6 26 -7 5 38 -13 27 -14 38 -6 43 8 5 10 23 4 57 -7 47 -8 48 -18
25z"/>
<path d="M870 411 c0 -10 75 -25 205 -42 182 -23 575 6 575 43 0 6 -12 8 -27
5 -184 -33 -246 -39 -393 -34 -85 3 -193 13 -240 21 -97 18 -120 20 -120 7z"/>
<path d="M1545 200 c-7 -12 32 -12 60 0 16 7 13 9 -17 9 -20 1 -40 -3 -43 -9z"/>
<path d="M985 190 c3 -6 45 -9 93 -9 73 1 81 3 47 10 -58 12 -148 11 -140 -1z"/>
<path d="M1265 191 c-53 -5 -64 -8 -47 -14 26 -10 132 1 132 14 0 5 -3 8 -7 7
-5 -1 -39 -4 -78 -7z"/>
<path d="M1425 190 c-4 -6 7 -10 25 -10 18 0 29 4 25 10 -3 6 -15 10 -25 10
-10 0 -22 -4 -25 -10z"/>
</g>
</svg>
