<?xml version="1.0" standalone="no"?>
<!DOCTYPE svg PUBLIC "-//W3C//DTD SVG 20010904//EN"
 "http://www.w3.org/TR/2001/REC-SVG-20010904/DTD/svg10.dtd">
<svg version="1.0" xmlns="http://www.w3.org/2000/svg"
 width="512.000000pt" height="512.000000pt" viewBox="0 0 512.000000 512.000000"
 preserveAspectRatio="xMidYMid meet">

<g transform="translate(0.000000,512.000000) scale(0.100000,-0.100000)"
fill="#000000" stroke="none">
<path d="M2879 5030 c-9 -5 -22 -23 -29 -40 -17 -42 2 -85 49 -110 24 -12 31
-20 21 -23 -8 -2 -65 -18 -126 -35 -463 -129 -864 -457 -1089 -893 -130 -252
-194 -522 -195 -817 l0 -133 -47 8 c-91 15 -291 7 -403 -16 -484 -101 -849
-470 -956 -966 -26 -121 -24 -341 5 -474 52 -245 169 -459 345 -631 l66 -64 0
-123 0 -123 -191 0 -191 0 -29 -29 -29 -29 0 -191 c0 -202 5 -231 47 -250 17
-8 355 -11 1184 -11 l1161 0 29 29 29 29 0 197 0 197 -29 29 -29 29 -191 0
-191 0 0 123 0 123 66 64 c159 156 287 377 334 578 6 28 16 52 21 52 6 0 27
-9 47 -19 21 -11 83 -35 138 -54 135 -47 171 -50 204 -17 23 23 27 77 8 103
-7 9 -61 32 -120 52 -59 19 -141 51 -183 70 l-75 34 0 53 c0 52 -12 173 -26
256 l-7 42 86 -54 c200 -125 447 -196 685 -196 93 0 126 9 149 39 20 26 15 70
-12 96 -22 23 -32 25 -119 25 -322 0 -604 117 -832 344 -457 455 -457 1184 1
1641 239 240 551 360 886 341 108 -6 118 -5 143 15 38 30 34 92 -7 123 -26 19
-41 21 -195 21 -121 0 -191 -5 -252 -18 -546 -114 -941 -509 -1057 -1057 -24
-118 -24 -372 0 -489 10 -46 17 -85 15 -86 -2 -2 -30 13 -63 33 -33 19 -100
52 -150 73 -86 36 -90 39 -98 76 -14 61 0 346 22 455 46 228 152 465 290 649
151 201 377 389 587 489 95 46 295 114 364 125 l45 8 -43 -46 c-23 -26 -42
-55 -42 -66 0 -56 51 -99 101 -86 23 6 148 132 236 237 37 45 43 85 16 116
-26 30 -306 182 -334 182 -13 0 -31 -5 -40 -10z m-1462 -2201 c245 -27 462
-131 637 -305 175 -176 277 -389 306 -644 39 -327 -105 -690 -358 -906 l-64
-54 -632 0 -632 0 -64 54 c-148 122 -266 309 -324 509 -164 566 171 1159 745
1316 133 37 247 46 386 30z m513 -2154 l0 -85 -625 0 -625 0 0 85 0 85 625 0
625 0 0 -85z m440 -340 l0 -95 -1065 0 -1065 0 0 95 0 95 1065 0 1065 0 0 -95z"/>
<path d="M1143 2695 c-267 -48 -511 -219 -648 -453 -52 -89 -98 -218 -90 -254
12 -53 81 -76 123 -40 12 9 35 53 51 97 77 203 242 371 439 448 83 32 201 57
267 57 60 0 95 29 95 80 0 77 -68 96 -237 65z"/>
<path d="M3652 4807 c-29 -31 -29 -78 1 -104 26 -24 169 -73 214 -73 22 0 38
8 52 26 49 62 14 113 -100 149 -101 32 -139 32 -167 2z"/>
<path d="M4243 4548 c-29 -14 -47 -60 -37 -92 5 -14 45 -55 89 -91 60 -48 88
-65 111 -65 41 0 74 36 74 81 0 38 -18 59 -119 137 -55 43 -79 49 -118 30z"/>
<path d="M3835 4265 c-25 -24 -31 -57 -19 -90 4 -9 48 -44 98 -76 99 -66 132
-71 169 -28 44 54 10 109 -114 182 -74 43 -101 46 -134 12z"/>
<path d="M3115 4190 c-76 -12 -212 -54 -294 -91 -110 -50 -222 -133 -322 -237
-108 -113 -176 -219 -226 -354 -57 -150 -67 -213 -67 -393 1 -141 4 -172 28
-259 103 -381 397 -675 774 -773 144 -37 331 -42 471 -13 435 89 745 395 853
840 8 35 13 114 12 220 0 146 -3 176 -27 265 -102 378 -399 674 -775 772 -109
28 -319 39 -427 23z m390 -179 c250 -66 469 -241 582 -465 80 -159 109 -293
100 -469 -12 -239 -95 -425 -267 -597 -100 -100 -183 -156 -302 -203 -133 -54
-182 -62 -348 -61 -138 1 -165 4 -244 28 -253 77 -452 242 -566 471 -62 124
-89 229 -97 365 -24 454 296 860 744 945 107 20 293 13 398 -14z"/>
<path d="M3243 3990 c-33 -13 -43 -42 -43 -120 0 -62 3 -74 25 -95 31 -32 66
-32 102 -1 26 23 28 29 28 100 0 62 -3 79 -20 95 -25 24 -63 33 -92 21z"/>
<path d="M2660 3740 c-34 -34 -27 -83 21 -134 52 -58 86 -70 130 -48 62 32 56
95 -17 161 -51 48 -100 55 -134 21z"/>
<path d="M3749 3711 c-37 -37 -49 -55 -49 -79 0 -45 10 -63 42 -77 44 -18 71
-8 124 46 39 39 48 55 48 83 0 49 -27 76 -77 76 -34 0 -47 -7 -88 -49z"/>
<path d="M3226 3559 l-26 -20 0 -223 c0 -162 3 -227 13 -239 21 -28 290 -177
319 -177 33 0 65 29 74 66 10 40 -21 72 -137 139 l-104 60 -5 182 c-5 175 -6
182 -29 207 -30 32 -69 34 -105 5z"/>
<path d="M2429 3181 c-31 -25 -32 -83 -1 -114 19 -19 33 -22 98 -22 71 0 77 2
100 28 29 34 31 66 3 101 -19 24 -26 26 -99 26 -61 0 -83 -4 -101 -19z"/>
<path d="M3929 3181 c-31 -25 -32 -83 -1 -114 19 -19 33 -22 98 -22 71 0 77 2
100 28 29 34 31 66 3 101 -19 24 -26 26 -99 26 -61 0 -83 -4 -101 -19z"/>
<path d="M2689 2651 c-40 -39 -49 -55 -49 -83 0 -51 28 -82 74 -82 30 0 45 8
85 48 54 53 64 80 46 124 -14 32 -32 42 -77 42 -24 0 -42 -12 -79 -49z"/>
<path d="M3720 2680 c-34 -34 -27 -83 20 -134 53 -57 89 -72 127 -54 15 7 34
26 41 41 18 38 3 74 -54 127 -51 47 -100 54 -134 20z"/>
<path d="M3243 2490 c-33 -14 -43 -42 -43 -124 0 -69 2 -76 26 -95 35 -28 67
-26 101 3 26 23 28 29 28 100 0 62 -3 79 -20 95 -25 24 -63 33 -92 21z"/>
<path d="M4660 4070 c-38 -38 -36 -62 20 -165 32 -59 61 -100 75 -107 44 -20
99 8 111 58 7 29 -55 159 -98 205 -31 35 -78 39 -108 9z"/>
<path d="M4290 3822 c-16 -17 -30 -38 -30 -48 0 -23 89 -196 109 -211 19 -15
66 -17 91 -3 10 5 23 24 29 42 11 30 8 40 -34 125 -52 103 -59 110 -103 119
-26 5 -36 1 -62 -24z"/>
<path d="M4903 3485 c-43 -18 -48 -44 -33 -163 9 -73 17 -103 33 -119 26 -29
76 -30 108 -4 21 17 24 27 22 82 -7 177 -47 240 -130 204z"/>
<path d="M4465 3215 c-24 -23 -25 -30 -25 -139 0 -112 1 -115 26 -135 35 -27
67 -26 101 3 27 23 28 28 31 134 4 108 3 111 -21 136 -34 34 -80 34 -112 1z"/>
<path d="M4876 2837 c-29 -29 -73 -199 -62 -241 12 -49 95 -66 130 -27 14 15
66 188 66 219 0 24 -57 72 -85 72 -14 0 -36 -10 -49 -23z"/>
<path d="M4320 2593 c-55 -71 -100 -155 -100 -187 0 -71 82 -101 132 -48 37
38 108 162 108 188 0 69 -97 101 -140 47z"/>
<path d="M4633 2253 c-42 -38 -123 -161 -123 -187 0 -58 51 -96 103 -77 40 15
147 164 147 205 0 63 -81 100 -127 59z"/>
<path d="M3843 2108 c-119 -66 -141 -112 -80 -168 31 -29 61 -25 150 23 106
56 133 93 111 152 -7 17 -54 45 -76 45 -7 0 -54 -24 -105 -52z"/>
<path d="M4211 1813 c-37 -15 -179 -113 -185 -128 -17 -44 15 -99 64 -110 33
-8 196 88 216 127 32 63 -31 136 -95 111z"/>
<path d="M3514 1718 c-20 -18 -81 -81 -135 -140 -106 -115 -118 -143 -81 -186
26 -31 305 -182 336 -182 36 0 76 41 76 78 0 34 -14 54 -59 80 l-34 20 38 11
c54 15 75 37 75 82 0 55 -38 83 -102 75 -27 -4 -48 -4 -48 0 0 4 16 24 35 45
49 55 47 107 -6 134 -40 21 -54 19 -95 -17z"/>
</g>
</svg>
