<svg xmlns="http://www.w3.org/2000/svg" width="512" height="512" viewBox="0 0 512 512" version="1.1"><path d="M 160 155 L 160 171 133.500 171 L 107 171 107 197.372 C 107 221.990, 107.161 224.379, 109.425 233.304 C 110.759 238.562, 113.497 246.157, 115.510 250.182 C 117.523 254.207, 121.025 259.975, 123.293 263 C 125.560 266.025, 129.614 270.649, 132.301 273.276 C 134.989 275.903, 139.733 279.778, 142.844 281.886 C 145.955 283.994, 150.525 286.758, 153 288.028 C 155.475 289.297, 161.207 291.537, 165.738 293.004 C 173.681 295.575, 174.152 295.903, 178.869 302.134 C 181.560 305.688, 186.403 311.191, 189.631 314.362 C 192.859 317.533, 198.511 322.141, 202.192 324.602 C 205.873 327.063, 212.173 330.592, 216.192 332.445 C 220.211 334.298, 226.088 336.562, 229.250 337.478 L 235 339.142 235 356.071 L 235 373 218.443 373 C 209.077 373, 199.859 373.510, 197.221 374.175 C 193.913 375.008, 191.216 376.689, 187.952 379.952 C 184.689 383.216, 183.008 385.913, 182.175 389.221 C 181.529 391.786, 181 396.386, 181 399.443 L 181 405 256 405 L 331 405 331 399.443 C 331 396.386, 330.510 391.941, 329.912 389.564 C 329.313 387.186, 327.470 383.599, 325.815 381.592 C 324.160 379.584, 320.938 376.943, 318.653 375.721 C 314.865 373.696, 312.851 373.472, 295.750 373.172 L 277 372.844 277 355.993 L 277 339.142 282.750 337.478 C 285.913 336.562, 291.789 334.298, 295.808 332.445 C 299.827 330.592, 306.127 327.067, 309.808 324.612 C 313.489 322.156, 319.385 317.301, 322.912 313.823 C 326.438 310.345, 331.307 304.821, 333.731 301.546 C 337.888 295.930, 338.545 295.475, 345.319 293.506 C 349.269 292.358, 355.425 289.929, 359 288.107 C 362.575 286.286, 368.242 282.844, 371.594 280.458 C 374.946 278.073, 380.022 273.568, 382.874 270.447 C 385.726 267.327, 389.420 262.797, 391.082 260.381 C 392.744 257.965, 395.649 252.728, 397.536 248.744 C 399.424 244.760, 401.941 237.900, 403.131 233.500 C 405.026 226.489, 405.350 222.132, 405.751 198.250 L 406.210 171 379.105 171 L 352 171 352 155 L 352 139 256 139 L 160 139 160 155 M 247.956 200.771 L 240.413 219.500 224.456 220.217 C 215.680 220.611, 206.700 221.061, 204.500 221.217 L 200.500 221.500 215 233.821 C 222.975 240.598, 229.915 246.733, 230.422 247.456 C 231.028 248.319, 229.688 255.153, 226.514 267.393 C 223.858 277.637, 221.924 286.258, 222.217 286.551 C 222.510 286.843, 230.231 282.283, 239.375 276.416 L 256 265.749 272.625 276.416 C 281.769 282.283, 289.488 286.846, 289.778 286.556 C 290.068 286.266, 288.212 277.990, 285.653 268.165 C 283.094 258.340, 281.002 249.671, 281.004 248.901 C 281.006 248.130, 287.860 241.650, 296.233 234.500 L 311.458 221.500 306.479 221.201 C 303.741 221.037, 294.770 220.587, 286.544 220.201 L 271.587 219.500 264.044 200.771 C 259.895 190.470, 256.275 182.042, 256 182.042 C 255.725 182.042, 252.105 190.470, 247.956 200.771 M 133.321 198.605 C 132.983 199.488, 132.996 205.225, 133.352 211.355 C 133.707 217.485, 134.471 224.525, 135.049 227 C 135.627 229.475, 137.657 234.663, 139.560 238.528 C 141.462 242.393, 144.981 247.793, 147.379 250.528 C 149.777 253.263, 153.895 257.042, 156.530 258.927 L 161.321 262.354 160.669 256.927 C 160.311 253.942, 160.013 239.238, 160.009 224.250 L 160 197 146.969 197 C 135.928 197, 133.843 197.245, 133.321 198.605 M 351.991 224.250 C 351.987 239.238, 351.691 253.930, 351.334 256.899 L 350.686 262.299 353.939 260.399 C 355.728 259.355, 360.024 255.507, 363.484 251.850 C 367.035 248.097, 371.123 242.433, 372.867 238.850 C 374.566 235.357, 376.641 229.818, 377.478 226.540 C 378.417 222.861, 379 216.066, 379 208.790 L 379 197 365.500 197 L 352 197 351.991 224.250" stroke="none" fill="#e9e9ea" fill-rule="evenodd"/><path d="M 236.500 21.617 C 234.300 21.846, 227.566 22.731, 221.536 23.583 C 215.505 24.435, 204.641 26.652, 197.392 28.510 C 190.144 30.367, 179.845 33.524, 174.506 35.523 C 169.166 37.523, 160.681 41.071, 155.649 43.407 C 150.617 45.743, 141.775 50.496, 136 53.969 C 130.225 57.442, 120.435 64.073, 114.244 68.705 C 108.053 73.336, 97.169 82.945, 90.057 90.057 C 82.945 97.169, 73.336 108.053, 68.705 114.244 C 64.073 120.435, 57.442 130.225, 53.969 136 C 50.496 141.775, 45.743 150.617, 43.407 155.649 C 41.071 160.681, 37.523 169.166, 35.523 174.506 C 33.524 179.845, 30.367 190.144, 28.510 197.392 C 26.652 204.641, 24.325 215.730, 23.339 222.036 C 22.007 230.548, 21.546 239.294, 21.546 256 C 21.546 272.706, 22.007 281.452, 23.339 289.964 C 24.325 296.270, 26.652 307.359, 28.510 314.608 C 30.367 321.856, 33.542 332.222, 35.565 337.643 C 37.588 343.064, 41.400 352, 44.037 357.500 C 46.674 363, 51.407 371.775, 54.555 377 C 57.703 382.225, 64.018 391.496, 68.588 397.603 C 73.157 403.710, 82.767 414.594, 89.942 421.791 C 97.117 428.987, 108.053 438.665, 114.244 443.298 C 120.435 447.930, 129.775 454.297, 135 457.445 C 140.225 460.593, 149 465.326, 154.500 467.963 C 160 470.600, 168.936 474.412, 174.357 476.435 C 179.778 478.458, 190.144 481.633, 197.392 483.490 C 204.641 485.348, 215.730 487.675, 222.036 488.661 C 230.548 489.993, 239.294 490.454, 256 490.454 C 272.706 490.454, 281.452 489.993, 289.964 488.661 C 296.270 487.675, 307.359 485.348, 314.608 483.490 C 321.856 481.633, 332.222 478.458, 337.643 476.435 C 343.064 474.412, 352 470.600, 357.500 467.963 C 363 465.326, 371.775 460.593, 377 457.445 C 382.225 454.297, 391.450 448.015, 397.500 443.485 C 403.550 438.955, 414.519 429.230, 421.874 421.874 C 429.230 414.519, 438.955 403.550, 443.485 397.500 C 448.015 391.450, 454.297 382.225, 457.445 377 C 460.593 371.775, 465.326 363, 467.963 357.500 C 470.600 352, 474.412 343.064, 476.435 337.643 C 478.458 332.222, 481.633 321.856, 483.490 314.608 C 485.348 307.359, 487.675 296.270, 488.661 289.964 C 489.993 281.452, 490.454 272.706, 490.454 256 C 490.454 239.294, 489.993 230.548, 488.661 222.036 C 487.675 215.730, 485.348 204.641, 483.490 197.392 C 481.633 190.144, 478.458 179.778, 476.435 174.357 C 474.412 168.936, 470.600 160, 467.963 154.500 C 465.326 149, 460.593 140.225, 457.445 135 C 454.297 129.775, 447.930 120.435, 443.298 114.244 C 438.665 108.053, 429.055 97.169, 421.943 90.057 C 414.831 82.945, 403.947 73.335, 397.756 68.702 C 391.565 64.070, 382.225 57.703, 377 54.555 C 371.775 51.407, 363 46.674, 357.500 44.037 C 352 41.400, 343.064 37.588, 337.643 35.565 C 332.222 33.542, 321.872 30.373, 314.643 28.521 C 307.414 26.670, 296.775 24.417, 291 23.516 C 284.781 22.545, 272.346 21.739, 260.500 21.538 C 249.500 21.352, 238.700 21.387, 236.500 21.617 M 160 155 L 160 171 133.500 171 L 107 171 107 197.372 C 107 221.990, 107.161 224.379, 109.425 233.304 C 110.759 238.562, 113.497 246.157, 115.510 250.182 C 117.523 254.207, 121.025 259.975, 123.293 263 C 125.560 266.025, 129.614 270.649, 132.301 273.276 C 134.989 275.903, 139.733 279.778, 142.844 281.886 C 145.955 283.994, 150.525 286.758, 153 288.028 C 155.475 289.297, 161.207 291.537, 165.738 293.004 C 173.681 295.575, 174.152 295.903, 178.869 302.134 C 181.560 305.688, 186.403 311.191, 189.631 314.362 C 192.859 317.533, 198.511 322.141, 202.192 324.602 C 205.873 327.063, 212.173 330.592, 216.192 332.445 C 220.211 334.298, 226.088 336.562, 229.250 337.478 L 235 339.142 235 356.071 L 235 373 218.443 373 C 209.077 373, 199.859 373.510, 197.221 374.175 C 193.913 375.008, 191.216 376.689, 187.952 379.952 C 184.689 383.216, 183.008 385.913, 182.175 389.221 C 181.529 391.786, 181 396.386, 181 399.443 L 181 405 256 405 L 331 405 331 399.443 C 331 396.386, 330.510 391.941, 329.912 389.564 C 329.313 387.186, 327.470 383.599, 325.815 381.592 C 324.160 379.584, 320.938 376.943, 318.653 375.721 C 314.865 373.696, 312.851 373.472, 295.750 373.172 L 277 372.844 277 355.993 L 277 339.142 282.750 337.478 C 285.913 336.562, 291.789 334.298, 295.808 332.445 C 299.827 330.592, 306.127 327.067, 309.808 324.612 C 313.489 322.156, 319.385 317.301, 322.912 313.823 C 326.438 310.345, 331.307 304.821, 333.731 301.546 C 337.888 295.930, 338.545 295.475, 345.319 293.506 C 349.269 292.358, 355.425 289.929, 359 288.107 C 362.575 286.286, 368.242 282.844, 371.594 280.458 C 374.946 278.073, 380.022 273.568, 382.874 270.447 C 385.726 267.327, 389.420 262.797, 391.082 260.381 C 392.744 257.965, 395.649 252.728, 397.536 248.744 C 399.424 244.760, 401.941 237.900, 403.131 233.500 C 405.026 226.489, 405.350 222.132, 405.751 198.250 L 406.210 171 379.105 171 L 352 171 352 155 L 352 139 256 139 L 160 139 160 155 M 247.956 200.771 L 240.413 219.500 224.456 220.217 C 215.680 220.611, 206.700 221.061, 204.500 221.217 L 200.500 221.500 215 233.821 C 222.975 240.598, 229.915 246.733, 230.422 247.456 C 231.028 248.319, 229.688 255.153, 226.514 267.393 C 223.858 277.637, 221.924 286.258, 222.217 286.551 C 222.510 286.843, 230.231 282.283, 239.375 276.416 L 256 265.749 272.625 276.416 C 281.769 282.283, 289.488 286.846, 289.778 286.556 C 290.068 286.266, 288.212 277.990, 285.653 268.165 C 283.094 258.340, 281.002 249.671, 281.004 248.901 C 281.006 248.130, 287.860 241.650, 296.233 234.500 L 311.458 221.500 306.479 221.201 C 303.741 221.037, 294.770 220.587, 286.544 220.201 L 271.587 219.500 264.044 200.771 C 259.895 190.470, 256.275 182.042, 256 182.042 C 255.725 182.042, 252.105 190.470, 247.956 200.771 M 133.321 198.605 C 132.983 199.488, 132.996 205.225, 133.352 211.355 C 133.707 217.485, 134.471 224.525, 135.049 227 C 135.627 229.475, 137.657 234.663, 139.560 238.528 C 141.462 242.393, 144.981 247.793, 147.379 250.528 C 149.777 253.263, 153.895 257.042, 156.530 258.927 L 161.321 262.354 160.669 256.927 C 160.311 253.942, 160.013 239.238, 160.009 224.250 L 160 197 146.969 197 C 135.928 197, 133.843 197.245, 133.321 198.605 M 351.991 224.250 C 351.987 239.238, 351.691 253.930, 351.334 256.899 L 350.686 262.299 353.939 260.399 C 355.728 259.355, 360.024 255.507, 363.484 251.850 C 367.035 248.097, 371.123 242.433, 372.867 238.850 C 374.566 235.357, 376.641 229.818, 377.478 226.540 C 378.417 222.861, 379 216.066, 379 208.790 L 379 197 365.500 197 L 352 197 351.991 224.250" stroke="none" fill="#4682ee" fill-rule="evenodd"/></svg>