<?xml version="1.0" encoding="UTF-8"?>
<svg version="1.1" xmlns="http://www.w3.org/2000/svg" width="512" height="512">
<path d="M0 0 C2.95676898 0.01609192 5.91216806 0.00002481 8.86889648 -0.01904297 C26.76234801 -0.0396568 44.5816458 1.66089182 61.96069336 6.07861328 C62.98670654 6.33425049 64.01271973 6.5898877 65.06982422 6.85327148 C119.0631702 20.69295945 170.60532292 51.42135247 204.52319336 96.39111328 C204.92634766 96.91253906 205.32950195 97.43396484 205.74487305 97.97119141 C247.63552251 152.21219739 266.21864627 220.66486817 257.92675781 288.68310547 C249.89513764 348.73641105 220.99977852 409.36073709 173.52319336 448.39111328 C172.1503418 449.59574219 172.1503418 449.59574219 170.74975586 450.82470703 C152.66887898 466.64654663 132.28297724 479.27669216 110.52319336 489.39111328 C109.46938477 489.8817627 109.46938477 489.8817627 108.39428711 490.38232422 C47.0728824 518.49253881 -24.65657257 519.7468435 -87.68383789 496.46630859 C-95.45531709 493.47456083 -102.99821946 490.04745326 -110.47680664 486.39111328 C-111.19352539 486.045 -111.91024414 485.69888672 -112.64868164 485.34228516 C-129.00295759 477.36200421 -144.6425696 467.2152475 -158.47680664 455.39111328 C-159.4268457 454.62283203 -160.37688477 453.85455078 -161.35571289 453.06298828 C-174.64567975 442.24157266 -187.09710979 430.0426711 -197.47680664 416.39111328 C-198.40324963 415.21612894 -199.33038088 414.04168707 -200.25805664 412.86767578 C-208.28081252 402.58390198 -215.00502308 391.70116582 -221.47680664 380.39111328 C-222.04093262 379.4277002 -222.04093262 379.4277002 -222.61645508 378.44482422 C-244.07948733 341.70575586 -252.9353165 298.64261864 -252.85180664 256.51611328 C-252.85126282 255.48130829 -252.85071899 254.4465033 -252.85015869 253.38034058 C-252.81078413 237.0548603 -251.98236726 221.39023583 -248.47680664 205.39111328 C-248.2625 204.38226074 -248.04819336 203.3734082 -247.82739258 202.33398438 C-239.49833036 164.00453722 -223.21268826 127.93025498 -198.47680664 97.39111328 C-197.77426758 96.49650391 -197.07172852 95.60189453 -196.34790039 94.68017578 C-174.29043016 66.97631814 -146.77742984 44.84346848 -115.47680664 28.39111328 C-114.72786133 27.99424316 -113.97891602 27.59737305 -113.20727539 27.18847656 C-78.49201142 9.04644081 -39.0906053 -0.25155245 0 0 Z " fill="#00AEEF" transform="translate(252.476806640625,-0.39111328125)"/>
<path d="M0 0 C7.4135008 6.36608876 12.52539528 13.9968665 14.0625 23.75 C15.1765463 44.70263997 9.00161777 60.06497253 -4.9375 75.75 C-9.53611857 80.81353385 -14.3895168 84.5890126 -19.9375 88.75 C-1.1275 89.08 17.6825 89.41 37.0625 89.75 C37.0625 116.48 37.0625 143.21 37.0625 170.75 C30.4625 170.75 23.8625 170.75 17.0625 170.75 C17.0625 217.28 17.0625 263.81 17.0625 311.75 C-62.7975 311.75 -142.6575 311.75 -224.9375 311.75 C-224.9375 265.22 -224.9375 218.69 -224.9375 170.75 C-231.8675 170.75 -238.7975 170.75 -245.9375 170.75 C-245.9375 144.02 -245.9375 117.29 -245.9375 89.75 C-224.4875 89.42 -203.0375 89.09 -180.9375 88.75 C-187.8675 83.8 -187.8675 83.8 -194.9375 78.75 C-194.9375 78.09 -194.9375 77.43 -194.9375 76.75 C-195.51628906 76.5128125 -196.09507812 76.275625 -196.69140625 76.03125 C-205.66214584 70.91402811 -210.84713719 58.7736825 -213.75 49.3125 C-216.47370729 38.1515615 -215.10675894 27.60644731 -209.6875 17.39453125 C-204.08584582 9.16710167 -195.48108992 4.07235408 -185.9375 1.75 C-182.77699176 1.34583704 -179.68363054 1.27166345 -176.5 1.3125 C-175.25005249 1.32385986 -175.25005249 1.32385986 -173.97485352 1.33544922 C-167.58850549 1.50645082 -162.52203394 2.52624595 -156.9375 5.75 C-156.07769531 6.22050781 -155.21789062 6.69101563 -154.33203125 7.17578125 C-128.38667369 22.00717472 -116.68359587 52.32463354 -108.9375 79.75 C-106.94447744 75.28051847 -104.95885084 70.80830471 -103.0078125 66.3203125 C-95.15983605 48.33079595 -85.97927105 31.53696283 -72.9375 16.75 C-72.33808594 16.05519531 -71.73867188 15.36039063 -71.12109375 14.64453125 C-53.98485133 -3.89814144 -22.53271396 -16.5214698 0 0 Z " fill="#FDFEFE" transform="translate(359.9375,103.25)"/>
<path d="M0 0 C26.73 0 53.46 0 81 0 C81 43.23 81 86.46 81 131 C54.27 131 27.54 131 0 131 C0 87.77 0 44.54 0 0 Z " fill="#02AEEF" transform="translate(155,264)"/>
<path d="M0 0 C26.4 0 52.8 0 80 0 C80 43.23 80 86.46 80 131 C53.6 131 27.2 131 0 131 C0 87.77 0 44.54 0 0 Z " fill="#00AEEF" transform="translate(276,264)"/>
<path d="M0 0 C33.33 0 66.66 0 101 0 C101 13.53 101 27.06 101 41 C67.67 41 34.34 41 0 41 C0 27.47 0 13.94 0 0 Z " fill="#05AFEF" transform="translate(276,213)"/>
<path d="M0 0 C33.33 0 66.66 0 101 0 C101 13.53 101 27.06 101 41 C67.67 41 34.34 41 0 41 C0 27.47 0 13.94 0 0 Z " fill="#05AFEF" transform="translate(135,213)"/>
<path d="M0 0 C3.28654634 2.21879741 4.46381244 4.45003107 5.6953125 8.14453125 C7.58723142 19.90563544 2.40355852 29.59191327 -4.2890625 38.90625 C-8.45135209 43.86008611 -8.45135209 43.86008611 -12.3046875 45.14453125 C-12.3046875 45.80453125 -12.3046875 46.46453125 -12.3046875 47.14453125 C-15.76622596 50.14453125 -15.76622596 50.14453125 -18.3046875 50.14453125 C-18.3046875 50.80453125 -18.3046875 51.46453125 -18.3046875 52.14453125 C-20.44351877 53.62573336 -22.56232002 54.96069938 -24.8046875 56.26953125 C-25.47161621 56.66406494 -26.13854492 57.05859863 -26.82568359 57.46508789 C-34.13050059 61.72495497 -41.65541416 65.54436535 -49.3046875 69.14453125 C-50.10003906 69.54542969 -50.89539063 69.94632812 -51.71484375 70.359375 C-55.52022575 71.51304285 -59.1670566 71.3556196 -63.1171875 71.26953125 C-63.90544922 71.26050781 -64.69371094 71.25148438 -65.50585938 71.2421875 C-67.43893416 71.21875629 -69.3718513 71.18288963 -71.3046875 71.14453125 C-70.79324884 64.56889131 -68.45906923 59.13871001 -65.8046875 53.14453125 C-65.35617432 52.12649414 -64.90766113 51.10845703 -64.44555664 50.05957031 C-58.64912213 37.15865182 -51.81048165 25.70836162 -42.3046875 15.14453125 C-41.57378906 14.33113281 -40.84289062 13.51773438 -40.08984375 12.6796875 C-29.98581987 2.00742326 -14.47964802 -8.03478508 0 0 Z " fill="#01AEEF" transform="translate(345.3046875,121.85546875)"/>
<path d="M0 0 C16.39022198 7.55701838 25.14312355 26.04533834 31.24609375 42.1171875 C35.24609375 52.96585219 35.24609375 52.96585219 35.24609375 57.1171875 C28.87488155 56.59052013 23.58738323 55.02994568 17.68359375 52.6171875 C16.8124292 52.26333984 15.94126465 51.90949219 15.04370117 51.54492188 C-1.50330866 44.61988835 -15.6450554 36.2545958 -22.75390625 19.1171875 C-24.31702137 14.42784213 -24.27712204 10.59963225 -22.62890625 5.9296875 C-17.25751339 -2.12740179 -8.78550264 -2.81634553 0 0 Z " fill="#03AFEF" transform="translate(191.75390625,128.8828125)"/>
</svg>
